<svg width="26" height="26" viewBox="0 0 26 26" fill="none" xmlns="http://www.w3.org/2000/svg">
<g id="ph:copy-simple-light">
<path id="Vector" d="M7.3125 19.2969H21.9375C22.0991 19.2969 22.2541 19.2327 22.3684 19.1184C22.4827 19.0041 22.5469 18.8491 22.5469 18.6875V4.0625C22.5469 3.90088 22.4827 3.74589 22.3684 3.63161C22.2541 3.51733 22.0991 3.45312 21.9375 3.45312H7.3125C7.15088 3.45312 6.99589 3.51733 6.88161 3.63161C6.76733 3.74589 6.70312 3.90088 6.70312 4.0625V18.6875C6.70312 18.8491 6.76733 19.0041 6.88161 19.1184C6.99589 19.2327 7.15088 19.2969 7.3125 19.2969ZM7.92188 4.67188H21.3281V18.0781H7.92188V4.67188ZM3.45312 21.9375V7.3125C3.45312 7.15088 3.51733 6.99589 3.63161 6.88161C3.74589 6.76733 3.90088 6.70312 4.0625 6.70312C4.22412 6.70312 4.37911 6.76733 4.49339 6.88161C4.60767 6.99589 4.67188 7.15088 4.67188 7.3125V21.3281H18.6875C18.8491 21.3281 19.0041 21.3923 19.1184 21.5066C19.2327 21.6209 19.2969 21.7759 19.2969 21.9375C19.2969 22.0991 19.2327 22.2541 19.1184 22.3684C19.0041 22.4827 18.8491 22.5469 18.6875 22.5469H4.0625C3.90088 22.5469 3.74589 22.4827 3.63161 22.3684C3.51733 22.2541 3.45312 22.0991 3.45312 21.9375Z" fill="white"/>
</g>
</svg>
