<svg width="126" height="45" viewBox="0 0 126 45" fill="none" xmlns="http://www.w3.org/2000/svg">
<g filter="url(#filter0_d_2932_3543)">
<path d="M35.8 20.9C35.8 29.6813 28.6813 36.8 19.9 36.8C11.1187 36.8 4 29.6813 4 20.9C4 12.1187 11.1187 5 19.9 5C28.6813 5 35.8 12.1187 35.8 20.9Z" fill="#DDF247"/>
<path d="M35.55 20.9C35.55 29.5433 28.5433 36.55 19.9 36.55C11.2567 36.55 4.25 29.5433 4.25 20.9C4.25 12.2567 11.2567 5.25 19.9 5.25C28.5433 5.25 35.55 12.2567 35.55 20.9Z" stroke="white" stroke-width="0.5"/>
</g>
<g filter="url(#filter1_f_2932_3543)">
<path d="M35.55 20.9C35.55 29.5433 28.5433 36.55 19.9 36.55C11.2567 36.55 4.25 29.5433 4.25 20.9C4.25 12.2567 11.2567 5.25 19.9 5.25C28.5433 5.25 35.55 12.2567 35.55 20.9Z" stroke="white" stroke-width="0.5"/>
</g>
<path d="M25.2312 16.7289C25.2312 17.2602 24.8 17.6883 24.2719 17.6883C23.7406 17.6883 23.3125 17.257 23.3125 16.7289C23.3125 16.1977 23.7438 15.7695 24.2719 15.7695C24.8 15.7695 25.2312 16.2008 25.2312 16.7289Z" fill="black"/>
<path d="M20 16.8906C17.7313 16.8906 15.8906 18.7313 15.8906 21C15.8906 23.2688 17.7313 25.1094 20 25.1094C22.2688 25.1094 24.1094 23.2688 24.1094 21C24.1094 18.7313 22.2688 16.8906 20 16.8906ZM20 23.6656C18.5281 23.6656 17.3344 22.4719 17.3344 21C17.3344 19.5281 18.5281 18.3344 20 18.3344C21.4719 18.3344 22.6656 19.5281 22.6656 21C22.6656 22.4719 21.4719 23.6656 20 23.6656Z" fill="black"/>
<path d="M20 14.4406C22.1375 14.4406 22.3906 14.45 23.2313 14.4875C24.0125 14.5219 24.4344 14.6531 24.7156 14.7625C25.0875 14.9063 25.3563 15.0813 25.6344 15.3594C25.9156 15.6406 26.0875 15.9063 26.2313 16.2781C26.3406 16.5594 26.4719 16.9844 26.5063 17.7625C26.5438 18.6062 26.5531 18.8594 26.5531 20.9938C26.5531 23.1313 26.5438 23.3844 26.5063 24.225C26.4719 25.0063 26.3406 25.4281 26.2313 25.7094C26.0875 26.0813 25.9125 26.35 25.6344 26.6281C25.3531 26.9094 25.0875 27.0813 24.7156 27.225C24.4344 27.3344 24.0094 27.4656 23.2313 27.5C22.3875 27.5375 22.1344 27.5469 20 27.5469C17.8625 27.5469 17.6094 27.5375 16.7688 27.5C15.9875 27.4656 15.5656 27.3344 15.2844 27.225C14.9125 27.0813 14.6438 26.9063 14.3656 26.6281C14.0844 26.3469 13.9125 26.0813 13.7688 25.7094C13.6594 25.4281 13.5281 25.0031 13.4938 24.225C13.4563 23.3813 13.4469 23.1281 13.4469 20.9938C13.4469 18.8563 13.4563 18.6031 13.4938 17.7625C13.5281 16.9812 13.6594 16.5594 13.7688 16.2781C13.9125 15.9063 14.0875 15.6375 14.3656 15.3594C14.6469 15.0781 14.9125 14.9063 15.2844 14.7625C15.5656 14.6531 15.9906 14.5219 16.7688 14.4875C17.6094 14.45 17.8625 14.4406 20 14.4406ZM20 13C17.8281 13 17.5563 13.0094 16.7031 13.0469C15.8531 13.0844 15.2688 13.2219 14.7625 13.4187C14.2344 13.625 13.7875 13.8969 13.3438 14.3438C12.8969 14.7875 12.625 15.2344 12.4188 15.7594C12.2219 16.2688 12.0844 16.85 12.0469 17.7C12.0094 18.5563 12 18.8281 12 21C12 23.1719 12.0094 23.4438 12.0469 24.2969C12.0844 25.1469 12.2219 25.7313 12.4188 26.2375C12.625 26.7656 12.8969 27.2125 13.3438 27.6562C13.7875 28.1 14.2344 28.375 14.7594 28.5781C15.2688 28.775 15.85 28.9125 16.7 28.95C17.5531 28.9875 17.825 28.9969 19.9969 28.9969C22.1688 28.9969 22.4406 28.9875 23.2938 28.95C24.1438 28.9125 24.7281 28.775 25.2344 28.5781C25.7594 28.375 26.2063 28.1 26.65 27.6562C27.0938 27.2125 27.3688 26.7656 27.5719 26.2406C27.7688 25.7313 27.9063 25.15 27.9438 24.3C27.9813 23.4469 27.9906 23.175 27.9906 21.0031C27.9906 18.8313 27.9813 18.5594 27.9438 17.7063C27.9063 16.8563 27.7688 16.2719 27.5719 15.7656C27.375 15.2344 27.1031 14.7875 26.6563 14.3438C26.2125 13.9 25.7656 13.625 25.2406 13.4219C24.7313 13.225 24.15 13.0875 23.3 13.05C22.4438 13.0094 22.1719 13 20 13Z" fill="black"/>
<g filter="url(#filter2_d_2932_3543)">
<path d="M78.8 20.9C78.8 29.6813 71.6813 36.8 62.9 36.8C54.1187 36.8 47 29.6813 47 20.9C47 12.1187 54.1187 5 62.9 5C71.6813 5 78.8 12.1187 78.8 20.9Z" fill="#DDF247"/>
<path d="M78.55 20.9C78.55 29.5433 71.5433 36.55 62.9 36.55C54.2567 36.55 47.25 29.5433 47.25 20.9C47.25 12.2567 54.2567 5.25 62.9 5.25C71.5433 5.25 78.55 12.2567 78.55 20.9Z" stroke="white" stroke-width="0.5"/>
</g>
<g filter="url(#filter3_f_2932_3543)">
<path d="M78.55 20.9C78.55 29.5433 71.5433 36.55 62.9 36.55C54.2567 36.55 47.25 29.5433 47.25 20.9C47.25 12.2567 54.2567 5.25 62.9 5.25C71.5433 5.25 78.55 12.2567 78.55 20.9Z" stroke="white" stroke-width="0.5"/>
</g>
<path fill-rule="evenodd" clip-rule="evenodd" d="M61.0186 21.9243L55.3041 28.4471H57.8355L62.2096 23.4411L66.0639 28.4481L71 28.4212L64.7417 20.1455L70.0824 14.0279L67.5916 14L63.5574 18.5976L60.1059 14.0075L55 14.002L61.0186 21.9243ZM68.0105 26.9456L66.7331 26.9416L57.9565 15.4517H59.3306L68.0105 26.9456Z" fill="black"/>
<g filter="url(#filter4_d_2932_3543)">
<path d="M121.8 19.9C121.8 28.6813 114.681 35.8 105.9 35.8C97.1187 35.8 90 28.6813 90 19.9C90 11.1187 97.1187 4 105.9 4C114.681 4 121.8 11.1187 121.8 19.9Z" fill="#DDF247"/>
<path d="M121.55 19.9C121.55 28.5433 114.543 35.55 105.9 35.55C97.2567 35.55 90.25 28.5433 90.25 19.9C90.25 11.2567 97.2567 4.25 105.9 4.25C114.543 4.25 121.55 11.2567 121.55 19.9Z" stroke="white" stroke-width="0.5"/>
</g>
<g filter="url(#filter5_f_2932_3543)">
<path d="M121.55 19.9C121.55 28.5433 114.543 35.55 105.9 35.55C97.2567 35.55 90.25 28.5433 90.25 19.9C90.25 11.2567 97.2567 4.25 105.9 4.25C114.543 4.25 121.55 11.2567 121.55 19.9Z" stroke="white" stroke-width="0.5"/>
</g>
<path d="M96.25 16.5625C96.25 15.2795 97.2631 14.25 98.5 14.25C99.7369 14.25 100.75 15.2795 100.75 16.5625V24.4375C100.75 25.7205 99.7369 26.75 98.5 26.75C97.2631 26.75 96.25 25.7205 96.25 24.4375V16.5625Z" fill="black" stroke="black" stroke-width="0.5"/>
<path d="M111.25 16.5625C111.25 15.2795 112.263 14.25 113.5 14.25C114.737 14.25 115.75 15.2795 115.75 16.5625V24.4375C115.75 25.7205 114.737 26.75 113.5 26.75C112.263 26.75 111.25 25.7205 111.25 24.4375V16.5625Z" fill="black" stroke="black" stroke-width="0.5"/>
<path d="M108.25 19.5C108.25 20.7426 107.243 21.75 106 21.75C104.757 21.75 103.75 20.7426 103.75 19.5C103.75 18.2574 104.757 17.25 106 17.25C107.243 17.25 108.25 18.2574 108.25 19.5Z" fill="black" stroke="black" stroke-width="0.5"/>
<defs>
<filter id="filter0_d_2932_3543" x="0" y="5" width="39.8008" height="39.8008" filterUnits="userSpaceOnUse" color-interpolation-filters="sRGB">
<feFlood flood-opacity="0" result="BackgroundImageFix"/>
<feColorMatrix in="SourceAlpha" type="matrix" values="0 0 0 0 0 0 0 0 0 0 0 0 0 0 0 0 0 0 127 0" result="hardAlpha"/>
<feOffset dy="4"/>
<feGaussianBlur stdDeviation="2"/>
<feComposite in2="hardAlpha" operator="out"/>
<feColorMatrix type="matrix" values="0 0 0 0 0 0 0 0 0 0 0 0 0 0 0 0 0 0 0.25 0"/>
<feBlend mode="normal" in2="BackgroundImageFix" result="effect1_dropShadow_2932_3543"/>
<feBlend mode="normal" in="SourceGraphic" in2="effect1_dropShadow_2932_3543" result="shape"/>
</filter>
<filter id="filter1_f_2932_3543" x="0" y="1" width="39.8008" height="39.8008" filterUnits="userSpaceOnUse" color-interpolation-filters="sRGB">
<feFlood flood-opacity="0" result="BackgroundImageFix"/>
<feBlend mode="normal" in="SourceGraphic" in2="BackgroundImageFix" result="shape"/>
<feGaussianBlur stdDeviation="2" result="effect1_foregroundBlur_2932_3543"/>
</filter>
<filter id="filter2_d_2932_3543" x="43" y="5" width="39.8008" height="39.8008" filterUnits="userSpaceOnUse" color-interpolation-filters="sRGB">
<feFlood flood-opacity="0" result="BackgroundImageFix"/>
<feColorMatrix in="SourceAlpha" type="matrix" values="0 0 0 0 0 0 0 0 0 0 0 0 0 0 0 0 0 0 127 0" result="hardAlpha"/>
<feOffset dy="4"/>
<feGaussianBlur stdDeviation="2"/>
<feComposite in2="hardAlpha" operator="out"/>
<feColorMatrix type="matrix" values="0 0 0 0 0 0 0 0 0 0 0 0 0 0 0 0 0 0 0.25 0"/>
<feBlend mode="normal" in2="BackgroundImageFix" result="effect1_dropShadow_2932_3543"/>
<feBlend mode="normal" in="SourceGraphic" in2="effect1_dropShadow_2932_3543" result="shape"/>
</filter>
<filter id="filter3_f_2932_3543" x="43" y="1" width="39.8008" height="39.8008" filterUnits="userSpaceOnUse" color-interpolation-filters="sRGB">
<feFlood flood-opacity="0" result="BackgroundImageFix"/>
<feBlend mode="normal" in="SourceGraphic" in2="BackgroundImageFix" result="shape"/>
<feGaussianBlur stdDeviation="2" result="effect1_foregroundBlur_2932_3543"/>
</filter>
<filter id="filter4_d_2932_3543" x="86" y="4" width="39.8008" height="39.8008" filterUnits="userSpaceOnUse" color-interpolation-filters="sRGB">
<feFlood flood-opacity="0" result="BackgroundImageFix"/>
<feColorMatrix in="SourceAlpha" type="matrix" values="0 0 0 0 0 0 0 0 0 0 0 0 0 0 0 0 0 0 127 0" result="hardAlpha"/>
<feOffset dy="4"/>
<feGaussianBlur stdDeviation="2"/>
<feComposite in2="hardAlpha" operator="out"/>
<feColorMatrix type="matrix" values="0 0 0 0 0 0 0 0 0 0 0 0 0 0 0 0 0 0 0.25 0"/>
<feBlend mode="normal" in2="BackgroundImageFix" result="effect1_dropShadow_2932_3543"/>
<feBlend mode="normal" in="SourceGraphic" in2="effect1_dropShadow_2932_3543" result="shape"/>
</filter>
<filter id="filter5_f_2932_3543" x="86" y="0" width="39.8008" height="39.8008" filterUnits="userSpaceOnUse" color-interpolation-filters="sRGB">
<feFlood flood-opacity="0" result="BackgroundImageFix"/>
<feBlend mode="normal" in="SourceGraphic" in2="BackgroundImageFix" result="shape"/>
<feGaussianBlur stdDeviation="2" result="effect1_foregroundBlur_2932_3543"/>
</filter>
</defs>
</svg>
