<svg width="54" height="54" viewBox="0 0 54 54" fill="none" xmlns="http://www.w3.org/2000/svg">
<g clip-path="url(#clip0_5_256)">
<path d="M53.4627 27C53.4627 41.6149 41.6149 53.4627 27 53.4627C12.3851 53.4627 0.537297 41.6149 0.537297 27C0.537297 12.3851 12.3851 0.537297 27 0.537297C41.6149 0.537297 53.4627 12.3851 53.4627 27Z" fill="white" stroke="white" stroke-width="1.07459"/>
<path d="M35.5928 21.4194C34.9701 21.0566 34.1618 21.0566 33.4766 21.4194L28.6183 24.2106L25.3193 26.0297L20.4609 28.8191C19.8383 29.1836 19.0299 29.1836 18.3448 28.8191L14.4838 26.6355C13.8611 26.2727 13.4258 25.6061 13.4258 24.8771V20.5706C13.4258 19.8433 13.7987 19.1767 14.4838 18.8122L18.2807 16.6894C18.9051 16.3249 19.7151 16.3249 20.4002 16.6894L24.1971 18.8122C24.8214 19.1767 25.2568 19.8433 25.2568 20.5706V23.3617L28.5559 21.4802V18.6907C28.5595 18.3284 28.4625 17.9722 28.2757 17.6618C28.0889 17.3513 27.8196 17.0988 27.4978 16.9324L20.4609 12.9296C19.8383 12.5651 19.0299 12.5651 18.3448 12.9296L11.1831 16.9324C10.8613 17.0988 10.592 17.3513 10.4051 17.6618C10.2183 17.9722 10.1214 18.3284 10.125 18.6907V26.757C10.125 27.486 10.4979 28.1526 11.1831 28.5171L18.3448 32.5198C18.9675 32.8826 19.7775 32.8826 20.4609 32.5198L25.3193 29.7894L28.6183 27.9096L33.4766 25.1809C34.0993 24.8164 34.9076 24.8164 35.5928 25.1809L39.3913 27.3037C40.0157 27.6666 40.4494 28.3331 40.4494 29.0621V33.3686C40.4494 34.0959 40.0781 34.7625 39.3913 35.127L35.5944 37.3106C34.9701 37.6751 34.1601 37.6751 33.4766 37.3106L29.6781 35.1877C29.0537 34.8232 28.6183 34.1567 28.6183 33.4294V30.6382L25.3193 32.5198V35.3092C25.3193 36.0366 25.6922 36.7048 26.3773 37.0676L33.5391 41.0704C34.1618 41.4349 34.9701 41.4349 35.6552 41.0704L42.8169 37.0676C43.4396 36.7048 43.875 36.0382 43.875 35.3092V27.243C43.8786 26.8807 43.7817 26.5245 43.5949 26.214C43.4081 25.9036 43.1388 25.6511 42.8169 25.4846L35.5944 21.4194H35.5928Z" fill="#232323"/>
</g>
<defs>
<clipPath id="clip0_5_256">
<rect width="54" height="54" fill="white"/>
</clipPath>
</defs>
</svg>
